<svg width="127" height="35" viewBox="0 0 127 35" fill="none" xmlns="http://www.w3.org/2000/svg">
<path d="M7.5 24.4375C4.52083 24.4375 2.45833 23.7917 1.3125 22.5C0.520833 21.5833 0.125 20.3021 0.125 18.6562C0.125 17.9479 0.197917 17.1875 0.34375 16.375L1.625 9.1875C2.5625 3.91667 5.94792 1.28125 11.7813 1.28125C14.1979 1.28125 16.0313 1.80208 17.2813 2.84375C18.5313 3.86458 19.1563 5.27083 19.1563 7.0625C19.1563 7.89583 19.0313 8.72917 18.7813 9.5625C18.5521 10.375 18.3229 10.9792 18.0938 11.375L17.75 12H12.2188C12.9063 11.2083 13.25 10.0833 13.25 8.625C13.25 7.85417 13.0521 7.25 12.6563 6.8125C12.2604 6.35417 11.6771 6.125 10.9063 6.125C8.80208 6.125 7.55208 7.29167 7.15625 9.625L6.0625 15.9375C5.95833 16.4792 5.90625 17.0104 5.90625 17.5312C5.90625 18.9062 6.72917 19.5937 8.375 19.5937C10.3542 19.5937 11.5417 18.4792 11.9375 16.25H17.5625L17.4063 17.1562C16.5729 22.0104 13.2708 24.4375 7.5 24.4375ZM29.2644 8.53125C31.5144 8.53125 33.2123 9.02083 34.3582 10C35.254 10.7708 35.7019 11.8437 35.7019 13.2187C35.7019 13.6771 35.6498 14.1771 35.5457 14.7187L34.8894 18.375C34.4936 20.5833 33.5665 22.1458 32.1082 23.0625C30.6707 23.9792 28.7436 24.4375 26.3269 24.4375C23.9102 24.4375 22.1394 23.9792 21.0144 23.0625C20.1811 22.375 19.7644 21.3437 19.7644 19.9687C19.7644 19.4896 19.8165 18.9583 19.9207 18.375L20.5769 14.7187C21.3061 10.5937 24.2019 8.53125 29.2644 8.53125ZM30.1082 15.3437C30.1498 15.1354 30.1707 14.875 30.1707 14.5625C30.1707 14.2292 30.0352 13.8646 29.7644 13.4687C29.4936 13.0729 29.0144 12.875 28.3269 12.875C27.6602 12.875 27.0977 13.1042 26.6394 13.5625C26.1811 14 25.8894 14.5937 25.7644 15.3437L25.3582 17.6875C25.3165 17.8958 25.2957 18.1667 25.2957 18.5C25.2957 18.8125 25.4311 19.1562 25.7019 19.5312C25.9727 19.9062 26.4415 20.0938 27.1082 20.0938C27.7957 20.0938 28.3686 19.8646 28.8269 19.4063C29.2852 18.9271 29.5769 18.3542 29.7019 17.6875L30.1082 15.3437ZM52.7161 12.1562C52.7161 12.8646 52.5911 13.5521 52.3411 14.2187C52.1119 14.8854 51.8827 15.375 51.6536 15.6875L51.3098 16.125H46.5911C47.1119 15.6458 47.3723 15.0521 47.3723 14.3437C47.3723 13.9687 47.2473 13.6667 46.9973 13.4375C46.7681 13.1875 46.4452 13.0625 46.0286 13.0625C45.3202 13.0625 44.7056 13.4167 44.1848 14.125L42.4348 24H37.1223L39.7786 8.96875H44.7161L44.3411 11.0625C45.5286 9.375 46.9661 8.53125 48.6536 8.53125C50.0077 8.53125 51.0181 8.85417 51.6848 9.5C52.3723 10.1458 52.7161 11.0312 52.7161 12.1562ZM63.6746 14.4062C63.6746 13.5104 63.2371 13.0625 62.3621 13.0625C61.5079 13.0625 60.7996 13.3854 60.2371 14.0312L58.4871 24H53.1746L55.8308 8.96875H60.7683L60.4246 10.8125C61.6537 9.29167 63.2058 8.53125 65.0808 8.53125C66.9558 8.53125 68.1746 8.98958 68.7371 9.90625C69.0912 10.4896 69.2683 11.1562 69.2683 11.9062C69.2683 12.6562 69.2162 13.3542 69.1121 14L68.2683 18.8125C68.2475 18.9375 68.2371 19.0521 68.2371 19.1562C68.2371 19.7187 68.5496 20 69.1746 20C69.6537 20 70.0808 19.8958 70.4558 19.6875L70.2996 23.2187C69.3204 24.0313 68.2058 24.4375 66.9558 24.4375C64.1225 24.4375 62.7058 23.25 62.7058 20.875C62.7058 20.4583 62.7475 20.0104 62.8308 19.5312L63.5808 15.375C63.6433 15 63.6746 14.6771 63.6746 14.4062ZM85.8826 24.5625C85.8826 27.6042 85.1013 30.0938 83.5388 32.0312C81.9972 33.9896 79.893 34.9688 77.2263 34.9688C74.5805 34.9688 72.8201 34.3125 71.9451 33C71.4034 32.1667 71.1326 31.1458 71.1326 29.9375C71.1326 28.75 71.2367 27.5625 71.4451 26.375L75.4451 3.75H80.7576L79.8201 8.96875H87.6013L86.8201 13.375H80.6951C82.1742 14.5625 83.4034 16.1042 84.3826 18C85.3826 19.8958 85.8826 22.0833 85.8826 24.5625ZM78.0388 30.5C78.6847 30.5 79.2367 29.9792 79.6951 28.9375C80.1534 27.8958 80.3826 26.5208 80.3826 24.8125C80.3826 23.125 80.2055 21.4167 79.8513 19.6875C79.518 17.9583 79.1117 16.6042 78.6326 15.625L76.7576 26.3438C76.6326 27.0729 76.5701 27.7083 76.5701 28.25C76.5701 29.75 77.0597 30.5 78.0388 30.5ZM94.3062 19.1875C94.3062 19.7292 94.577 20 95.1187 20C95.6812 20 96.1499 19.8958 96.5249 19.6875L96.3687 23.2187C95.3687 24.0313 94.2437 24.4375 92.9937 24.4375C91.0978 24.4375 89.8687 24 89.3062 23.125C88.952 22.5625 88.7749 21.9479 88.7749 21.2812C88.7749 20.6146 88.8166 20.0312 88.8999 19.5312L92.3062 0.281248H97.6187L94.3374 18.8125C94.3166 18.9375 94.3062 19.0625 94.3062 19.1875ZM105.067 20C105.546 20 105.973 19.8958 106.348 19.6875L106.192 23.2187C105.212 24.0313 104.098 24.4375 102.848 24.4375C100.952 24.4375 99.7229 24 99.1604 23.125C98.7854 22.5417 98.5979 21.9271 98.5979 21.2812C98.5979 20.6146 98.6396 20.0312 98.7229 19.5312L100.598 8.96875H105.91L104.16 18.8125C104.14 18.9375 104.129 19.0521 104.129 19.1562C104.129 19.7187 104.442 20 105.067 20ZM101.223 3.875C101.223 2.54167 101.515 1.57292 102.098 0.968748C102.702 0.343749 103.629 0.0312494 104.879 0.0312494C106.629 0.0312494 107.504 0.802083 107.504 2.34375C107.504 3.65625 107.202 4.61458 106.598 5.21875C106.015 5.82292 105.087 6.125 103.817 6.125C102.087 6.125 101.223 5.375 101.223 3.875ZM123.894 24H118.082L115.863 19.6562L112.113 24H106.3L113.05 16.3125L108.988 8.75H114.894L117.019 13.0312L120.675 8.75H126.582L119.8 16.3437L123.894 24Z" fill="#DB0000"/>
</svg>
